<mxfile host="app.diagrams.net" modified="2024-06-25T00:55:03.976Z" agent="Mozilla/5.0 (Windows NT 10.0; Win64; x64; rv:109.0) Gecko/20100101 Firefox/115.0" version="24.6.2" etag="p88ebMo2ZBvho0zzPdRU" type="github">
  <diagram name="第 1 页" id="AgBvIiE-8XPzSTjeNZFd">
    <mxGraphModel>
      <root>
        <mxCell id="0" />
        <mxCell id="1" parent="0" />
      </root>
    </mxGraphModel>
  </diagram>
</mxfile>
